<svg width="88" height="72" viewBox="0 0 88 72" fill="none" xmlns="http://www.w3.org/2000/svg">
<g filter="url(#filter0_d_1646_13557)">
<mask id="mask0_1646_13557" style="mask-type:alpha" maskUnits="userSpaceOnUse" x="0" y="0" width="88" height="61">
<rect width="87.9996" height="60.9898" rx="6.97027" fill="white"/>
</mask>
<g mask="url(#mask0_1646_13557)">
<path d="M18.3169 26.0176L16.1797 28.7731L23.66 31.4184L18.3169 26.0176Z" fill="#FFC107" stroke="#FFC107" stroke-width="2.06539" stroke-linecap="round" stroke-linejoin="round"/>
<path d="M23.4955 17.5099L19.1403 18.9369L25.6623 27.5855L23.4955 17.5099Z" fill="#FFC107" stroke="#FFC107" stroke-width="2.06539" stroke-linecap="round" stroke-linejoin="round"/>
<path d="M43.4332 8.27279C52.666 11.1826 48.6338 20.9481 45.4636 25.4672L43.8607 27.4511C43.3976 27.3776 41.125 26.878 35.7392 25.4672C29.0069 23.7036 30.8236 16.9802 30.7167 10.4772C30.6324 5.34744 27.7706 2.72531 26.2905 2.01908C26.2694 2.00928 26.2487 1.99967 26.2285 1.99023C26.2489 1.99947 26.2696 2.00908 26.2905 2.01908C28.2469 2.92534 34.2992 5.39411 43.4332 8.27279Z" fill="#4CAF50"/>
<g opacity="0.8">
<path d="M35.846 9.15456C40.3342 14.2247 41.7234 16.4291 43.7538 24.0343L44.2881 27.5613C43.9986 27.4882 37.2185 26.6 34.0294 24.8058C29.3275 22.1606 30.7835 17.1725 30.7167 10.6976C30.6555 4.77236 27.7125 2.95121 26.5134 2.18013C26.4051 2.11372 26.3099 2.05075 26.2285 1.99023C26.306 2.04612 26.4022 2.10861 26.5134 2.18013C27.9763 3.07722 31.8154 4.6013 35.846 9.15456Z" fill="#4CAF50" style="mix-blend-mode:multiply"/>
</g>
<path d="M43.8583 27.3406C43.4522 23.3765 45.1406 18.0821 32.8516 6.61914" stroke="#175A1A" stroke-width="0.826156" stroke-linecap="round"/>
<path d="M73.3853 49.5325C73.6047 61.6384 62.9892 70.2272 48.2373 70.5115C33.4854 70.7959 20.7891 63.0707 20.5698 50.9647C20.3505 38.8588 32.1777 26.2892 46.9296 26.0049C61.6816 25.7206 73.166 37.4265 73.3853 49.5325Z" fill="#FFFFF0"/>
<path d="M73.3855 49.5326C73.6049 61.6386 62.9894 70.2274 48.2375 70.5117C33.4856 70.796 20.7893 63.0709 20.57 50.9649C23.9801 62.1707 32.4171 67.6354 47.169 67.351C61.9209 67.0667 70.3579 61.3991 73.3855 49.5326Z" fill="#EFEFCB" style="mix-blend-mode:multiply"/>
<ellipse cx="63.309" cy="45.086" rx="8.8695" ry="8.92785" fill="#FFC9B2"/>
<path fill-rule="evenodd" clip-rule="evenodd" d="M61.6107 39.008C61.6566 39.0463 61.6637 39.1157 61.6265 39.163C60.765 40.2607 60.1078 41.4508 59.4303 42.6843C59.0602 43.358 58.6468 44.0125 58.2356 44.6637C57.9563 45.1059 57.678 45.5466 57.4149 45.9906C57.3841 46.0426 57.3183 46.059 57.268 46.0272C57.2176 45.9955 57.2017 45.9276 57.2325 45.8757C57.5032 45.4188 57.7839 44.9745 58.0637 44.5319C58.4707 43.8877 58.8756 43.247 59.2443 42.5756C59.9207 41.3442 60.586 40.1383 61.4604 39.0243C61.4976 38.977 61.5648 38.9697 61.6107 39.008Z" fill="#DB6431"/>
<path fill-rule="evenodd" clip-rule="evenodd" d="M64.5182 37.0701C64.5611 37.1119 64.5631 37.1816 64.5226 37.2259C64.1639 37.618 63.9282 38.0485 63.6758 38.5094C63.6026 38.6432 63.5279 38.7796 63.4484 38.9184C63.1897 39.3699 62.9024 39.8041 62.6122 40.2328C62.5546 40.3179 62.4969 40.4028 62.4393 40.4875C62.206 40.8305 61.9742 41.1716 61.7547 41.5196C60.5971 43.3554 59.6106 45.1692 58.7015 47.1459C58.6762 47.2009 58.6125 47.2244 58.5591 47.1983C58.5058 47.1722 58.4831 47.1065 58.5084 47.0515C59.4216 45.0657 60.4129 43.2432 61.5755 41.3994C61.7973 41.0478 62.0318 40.7028 62.2653 40.3595C62.3227 40.2751 62.3799 40.1909 62.4369 40.1067C62.7267 39.6786 63.0101 39.2502 63.2644 38.8062C63.3391 38.6758 63.4108 38.5448 63.4823 38.4141C63.7367 37.949 63.9888 37.4881 64.3671 37.0746C64.4076 37.0303 64.4752 37.0283 64.5182 37.0701Z" fill="#DB6431"/>
<path fill-rule="evenodd" clip-rule="evenodd" d="M66.2133 37.6506C66.2575 37.6908 66.2618 37.7605 66.2228 37.8061C66.0322 38.0292 65.8884 38.299 65.7528 38.5863C65.7151 38.6662 65.6778 38.7479 65.6402 38.8303C65.5447 39.0396 65.4474 39.2529 65.3371 39.4489C64.9203 40.1889 64.4577 40.9108 63.9976 41.6288C63.7065 42.083 63.4164 42.5357 63.1394 42.9906C62.706 43.7025 62.3276 44.4401 61.9518 45.1832C61.9199 45.2462 61.888 45.3094 61.8561 45.3725C61.5128 46.0521 61.1681 46.7347 60.7838 47.3992C60.646 47.6375 60.5066 47.8725 60.3676 48.1067C60.0524 48.6381 59.7396 49.1652 59.4551 49.7155C59.4273 49.7692 59.3626 49.7895 59.3105 49.7609C59.2584 49.7322 59.2387 49.6655 59.2665 49.6117C59.5541 49.0555 59.8723 48.5193 60.1891 47.9852C60.3273 47.7523 60.4652 47.5198 60.6003 47.2863C60.9812 46.6275 61.3232 45.9505 61.6669 45.2699C61.6987 45.2071 61.7305 45.1441 61.7623 45.0812C62.138 44.3383 62.52 43.5936 62.9584 42.8734C63.2414 42.4087 63.5338 41.9525 63.8255 41.4974C64.2823 40.7849 64.7374 40.0748 65.1522 39.3381C65.2577 39.1509 65.3488 38.9512 65.4426 38.7454C65.4811 38.6611 65.52 38.5757 65.5606 38.4898C65.6981 38.1986 65.8521 37.9067 66.0624 37.6604C66.1014 37.6147 66.169 37.6103 66.2133 37.6506Z" fill="#DB6431"/>
<path fill-rule="evenodd" clip-rule="evenodd" d="M67.2653 39.8631C67.3109 39.9018 67.3174 39.9713 67.2798 40.0182C65.8518 41.8048 64.7602 43.9885 63.7642 46.0764C63.4011 46.8374 63.0157 47.5855 62.6311 48.3318C62.6159 48.3614 62.6006 48.391 62.5854 48.4206C62.1854 49.1969 61.7875 49.9717 61.4159 50.7608C61.3901 50.8155 61.3262 50.8384 61.2731 50.8118C61.22 50.7852 61.1979 50.7192 61.2237 50.6645C61.5972 49.8713 61.9969 49.0931 62.3966 48.3171C62.4117 48.2878 62.4268 48.2586 62.4419 48.2293C62.8268 47.4822 63.2109 46.7368 63.5724 45.979C64.568 43.8921 65.6692 41.6867 67.1149 39.878C67.1524 39.831 67.2198 39.8243 67.2653 39.8631Z" fill="#DB6431"/>
<path fill-rule="evenodd" clip-rule="evenodd" d="M68.6516 41.6432C68.7009 41.6766 68.7145 41.745 68.6821 41.7958C67.4161 43.7796 66.2532 45.8763 65.1051 47.9464C65.0594 48.0288 65.0138 48.1111 64.9681 48.1934C64.397 49.223 63.8977 50.2638 63.4413 51.3518C63.4185 51.4059 63.3687 51.4978 63.319 51.5893L63.3147 51.5972C63.2898 51.643 63.2643 51.69 63.2404 51.7351C63.2551 51.7404 63.2689 51.7491 63.2806 51.7612C63.3223 51.8042 63.3223 51.874 63.2806 51.917C63.2245 51.9749 63.1792 52.0173 63.1439 52.044C63.127 52.0567 63.1062 52.0706 63.0835 52.0792C63.0672 52.0854 63.0065 52.1046 62.9558 52.0556C62.9125 52.0138 62.9176 51.9581 62.9188 51.9455C62.9208 51.924 62.9267 51.9031 62.9323 51.8862C62.9438 51.8512 62.9622 51.8095 62.9827 51.7669C63.0225 51.6841 63.0775 51.5828 63.1268 51.492L63.1325 51.4816C63.1853 51.3844 63.2279 51.3053 63.2451 51.2642C63.7044 50.1693 64.2072 49.1211 64.7826 48.0839C64.8286 48.001 64.8747 47.918 64.9208 47.8349C66.068 45.7664 67.2338 43.6643 68.5036 41.6746C68.536 41.6238 68.6023 41.6097 68.6516 41.6432Z" fill="#DB6431"/>
<path fill-rule="evenodd" clip-rule="evenodd" d="M69.4355 44.4788C69.4855 44.5111 69.5006 44.5791 69.4693 44.6307C68.8927 45.579 68.3953 46.5598 67.8934 47.5496C67.7409 47.8505 67.588 48.1521 67.4322 48.4539C67.2877 48.7339 67.1406 49.0104 66.994 49.2859C66.574 50.0753 66.1584 50.8562 65.8227 51.6873C65.8 51.7434 65.7375 51.77 65.683 51.7466C65.6285 51.7232 65.6027 51.6587 65.6254 51.6025C65.966 50.7595 66.3895 49.9637 66.8112 49.1712C66.9567 48.8978 67.102 48.6248 67.2436 48.3503C67.3977 48.0517 67.5496 47.7521 67.7015 47.4525C68.2041 46.4612 68.7067 45.4699 69.2882 44.5136C69.3195 44.462 69.3855 44.4464 69.4355 44.4788Z" fill="#DB6431"/>
<path fill-rule="evenodd" clip-rule="evenodd" d="M69.5568 46.7188C69.6142 46.7329 69.6497 46.7923 69.6361 46.8515C69.439 47.7082 68.9865 48.3675 68.4861 49.0311C68.4499 49.0791 68.3828 49.0878 68.3362 49.0504C68.2896 49.0131 68.2812 48.9438 68.3174 48.8958C68.816 48.2345 69.2425 47.6075 69.4281 46.8006C69.4417 46.7414 69.4993 46.7048 69.5568 46.7188Z" fill="#DB6431"/>
<ellipse cx="30.1781" cy="48.8341" rx="8.8695" ry="8.92785" fill="#FFC9B2"/>
<path fill-rule="evenodd" clip-rule="evenodd" d="M26.6724 42.6974C26.7016 42.7504 26.6836 42.8177 26.6322 42.8477C26.275 43.0568 26.0089 43.4795 25.784 43.967C25.6726 44.2086 25.5736 44.4606 25.479 44.7028C25.4756 44.7113 25.4723 44.7198 25.469 44.7283C25.3786 44.9599 25.2913 45.1833 25.2021 45.3733C25.1264 45.5345 25.0502 45.6951 24.9742 45.8553C24.2616 47.3569 23.5641 48.8267 23.4459 50.4932C23.4416 50.5539 23.3904 50.5996 23.3315 50.5951C23.2726 50.5907 23.2284 50.5379 23.2327 50.4771C23.3541 48.7655 24.0706 47.2567 24.7809 45.761C24.8575 45.5997 24.934 45.4385 25.0097 45.2773C25.0957 45.0942 25.1805 44.877 25.2722 44.6422C25.2751 44.6349 25.2779 44.6277 25.2807 44.6204C25.3751 44.3788 25.4764 44.1208 25.591 43.8723C25.8184 43.3794 26.1081 42.9011 26.5267 42.656C26.5781 42.6259 26.6433 42.6445 26.6724 42.6974Z" fill="#DB6431"/>
<path fill-rule="evenodd" clip-rule="evenodd" d="M28.8418 41.8826C28.8909 41.8626 28.9192 41.8077 28.9061 41.7534C28.8918 41.6944 28.8337 41.6585 28.7765 41.6732C28.7165 41.6887 28.6779 41.7378 28.6559 41.7712C28.6308 41.8096 28.6087 41.8572 28.5892 41.907C28.5498 42.0072 28.5138 42.1348 28.4825 42.2604C28.451 42.3867 28.4234 42.5151 28.4013 42.618C28.3781 42.7263 28.3632 42.7957 28.356 42.8171C28.0112 43.8452 27.6271 44.8756 27.1698 45.8515C26.5118 47.2558 25.9153 48.6157 25.4746 50.1207C25.4708 50.1335 25.4633 50.158 25.453 50.1915C25.413 50.3217 25.3311 50.5886 25.2646 50.8397C25.2229 50.9973 25.1857 51.1543 25.1685 51.2711C25.1603 51.3274 25.155 51.3846 25.1603 51.4301C25.1628 51.4508 25.1691 51.4872 25.1933 51.5185C25.2071 51.5362 25.2272 51.5529 25.2539 51.5616C25.2802 51.5702 25.3049 51.5685 25.3244 51.5635C25.3816 51.5487 25.4164 51.4889 25.4021 51.4298C25.397 51.4088 25.3864 51.3907 25.3722 51.3768C25.373 51.3595 25.3753 51.3355 25.3799 51.3041C25.395 51.2008 25.4293 51.0543 25.4708 50.8978C25.5357 50.6526 25.6143 50.3965 25.6551 50.2634C25.6663 50.2269 25.6747 50.1996 25.6792 50.1844C26.1148 48.6966 26.7053 47.3493 27.3622 45.9474C27.8245 44.9609 28.2118 43.9215 28.558 42.8892C28.5695 42.855 28.5862 42.7771 28.605 42.6889C28.6067 42.6812 28.6083 42.6734 28.61 42.6655C28.6321 42.5625 28.6591 42.4375 28.6895 42.3152C28.7202 42.1922 28.7534 42.076 28.7873 41.9896C28.8044 41.9461 28.8199 41.9147 28.8329 41.8948C28.8368 41.8888 28.8398 41.885 28.8418 41.8826ZM25.373 51.4065C25.373 51.4065 25.3728 51.406 25.3727 51.4048C25.3729 51.4059 25.373 51.4065 25.373 51.4065Z" fill="#DB6431"/>
<path fill-rule="evenodd" clip-rule="evenodd" d="M30.3411 41.8635C30.4 41.8601 30.4504 41.9066 30.4537 41.9674C30.4802 42.4604 30.3829 42.9622 30.2456 43.4466C30.1563 43.7617 30.0478 44.0763 29.9439 44.3775C29.8891 44.5364 29.8356 44.6916 29.7868 44.8412C29.5845 45.4622 29.3531 46.0713 29.1228 46.6775L29.1021 46.7321C28.8646 47.3572 28.6293 47.9796 28.4265 48.6144C28.1155 49.5878 27.824 50.5715 27.5322 51.5559L27.4995 51.6662C27.1969 52.687 26.8934 53.708 26.5676 54.7159C26.549 54.7737 26.4885 54.8049 26.4325 54.7856C26.3765 54.7664 26.3462 54.704 26.3649 54.6462C26.6896 53.6413 26.9925 52.6228 27.2951 51.6018L27.328 51.4907C27.6196 50.5069 27.9118 49.5211 28.2235 48.5454C28.4284 47.904 28.6659 47.2761 28.9031 46.6516L28.923 46.5991C29.1539 45.9914 29.3836 45.3867 29.5842 44.7709C29.6355 44.6137 29.6903 44.4549 29.7457 44.2943C29.8482 43.9974 29.9527 43.6945 30.0405 43.3848C30.1749 42.9105 30.2649 42.4364 30.2403 41.9796C30.237 41.9188 30.2821 41.8668 30.3411 41.8635Z" fill="#DB6431"/>
<path fill-rule="evenodd" clip-rule="evenodd" d="M31.951 43.5369C32.0091 43.5475 32.0479 43.6047 32.0376 43.6647C31.6879 45.6972 31.1149 47.6366 30.5383 49.5879C30.3886 50.0946 30.2387 50.602 30.0924 51.1121C29.9217 51.7072 29.7391 52.297 29.5568 52.8857C29.268 53.8186 28.9799 54.749 28.7412 55.6942C28.7307 55.7356 28.7149 55.7895 28.698 55.8468C28.6867 55.8851 28.675 55.925 28.6641 55.9637C28.6355 56.0657 28.6101 56.1683 28.5996 56.2544C28.5943 56.2974 28.5933 56.3321 28.5961 56.3582C28.5979 56.376 28.6011 56.3857 28.603 56.3903C28.6032 56.3903 28.6034 56.3903 28.6037 56.3903C28.6151 56.391 28.6414 56.3881 28.6887 56.3678C28.7432 56.3444 28.8058 56.371 28.8285 56.4272C28.8512 56.4833 28.8254 56.5479 28.7709 56.5713C28.7086 56.5981 28.6477 56.614 28.5906 56.6103C28.5289 56.6064 28.4747 56.5796 28.4368 56.5301C28.4021 56.4847 28.3886 56.43 28.3836 56.3817C28.3784 56.3323 28.3811 56.279 28.3875 56.2268C28.4002 56.1225 28.4297 56.006 28.4588 55.9024C28.4718 55.8562 28.4843 55.8138 28.4957 55.7752C28.5112 55.7227 28.5246 55.6771 28.5343 55.6386C28.7741 54.6897 29.0658 53.7469 29.3564 52.8083C29.5383 52.2206 29.7196 51.6345 29.8875 51.0495C30.0349 50.5356 30.1856 50.0255 30.3357 49.5173C30.9118 47.5676 31.48 45.6443 31.8272 43.6261C31.8375 43.5662 31.8929 43.5262 31.951 43.5369Z" fill="#DB6431"/>
<path fill-rule="evenodd" clip-rule="evenodd" d="M34.3052 44.2029C34.3601 44.2251 34.3873 44.289 34.3657 44.3457C34.2288 44.7067 34.1425 45.0782 34.0538 45.4598C34.026 45.5797 33.9979 45.7005 33.9679 45.8223C33.6375 47.1662 33.2149 48.4515 32.7548 49.7473C32.3431 50.9071 32.08 52.0689 31.9612 53.2934C31.9554 53.354 31.903 53.3982 31.8443 53.3921C31.7856 53.3861 31.7427 53.3321 31.7486 53.2715C31.8692 52.0279 32.1364 50.8481 32.5542 49.6715C33.0132 48.3786 33.433 47.1013 33.7608 45.7681C33.7891 45.6527 33.8162 45.536 33.8435 45.4186C33.9329 45.0338 34.0239 44.6419 34.1667 44.2654C34.1882 44.2087 34.2502 44.1807 34.3052 44.2029Z" fill="#DB6431"/>
<path fill-rule="evenodd" clip-rule="evenodd" d="M35.7029 46.0625C35.7608 46.074 35.7988 46.1317 35.7877 46.1915C35.7786 46.2409 35.7694 46.2902 35.7603 46.3394C35.4898 47.7975 35.2279 49.2091 34.7669 50.6358C34.7482 50.6936 34.6877 50.7248 34.6317 50.7055C34.5757 50.6863 34.5454 50.6238 34.5641 50.5661C35.0206 49.1536 35.2801 47.7548 35.5513 46.2929C35.5601 46.2454 35.5689 46.1977 35.5778 46.1501C35.5889 46.0903 35.6449 46.0511 35.7029 46.0625Z" fill="#DB6431"/>
<path d="M51.3377 41.3391C51.2359 40.788 43.2874 41.5963 40.8652 42.1106C41.079 43.6537 43.4006 51.4793 46.9563 51.4793C49.9485 51.4793 51.7651 43.6537 51.3377 41.3391Z" fill="#FAFAC4" style="mix-blend-mode:multiply"/>
<path d="M40.8652 42.1106L40.6507 41.1004C40.1209 41.213 39.768 41.7158 39.8423 42.2523L40.8652 42.1106ZM51.3377 41.3391L50.3221 41.5266V41.5266L51.3377 41.3391ZM40.8652 42.1106L41.0797 43.1208C42.2267 42.8772 44.7681 42.5508 47.0598 42.3542C48.2012 42.2563 49.2493 42.1935 50.0072 42.1875C50.3928 42.1844 50.6654 42.1966 50.8268 42.2173C50.9152 42.2286 50.9138 42.2357 50.8662 42.2178C50.843 42.2091 50.7566 42.1755 50.6567 42.0947C50.5529 42.0109 50.3777 41.8277 50.3221 41.5266L51.3377 41.3391L52.3532 41.1515C52.2912 40.816 52.0944 40.601 51.9544 40.488C51.8183 40.378 51.6811 40.3177 51.5935 40.2847C51.4172 40.2184 51.2322 40.1869 51.0888 40.1685C50.7865 40.1299 50.4025 40.1189 49.9908 40.1221C49.1541 40.1288 48.0447 40.1968 46.8834 40.2964C44.5699 40.4948 41.9259 40.8297 40.6507 41.1004L40.8652 42.1106ZM51.3377 41.3391L50.3221 41.5266C50.3973 41.9339 50.385 42.7203 50.2326 43.7486C50.0845 44.7481 49.8186 45.881 49.4531 46.9404C49.084 48.0102 48.6331 48.9475 48.1408 49.596C47.6304 50.2683 47.2232 50.4466 46.9563 50.4466V51.4793V52.512C48.1855 52.512 49.1275 51.7122 49.7859 50.8448C50.4623 49.9537 50.9999 48.7899 51.4056 47.614C51.8148 46.4277 52.1099 45.1702 52.2757 44.0514C52.4372 42.9614 52.4917 41.9016 52.3532 41.1515L51.3377 41.3391ZM46.9563 51.4793V50.4466C46.4678 50.4466 45.9083 50.1781 45.2827 49.5206C44.6639 48.8703 44.0883 47.9481 43.5851 46.9198C42.5737 44.8526 41.9777 42.6155 41.8882 41.9689L40.8652 42.1106L39.8423 42.2523C39.9665 43.1488 40.6381 45.5961 41.7299 47.8275C42.2784 48.9485 42.9632 50.0792 43.7864 50.9443C44.6028 51.8023 45.667 52.512 46.9563 52.512V51.4793Z" fill="#4CAF50"/>
<path d="M12.2211 45.6454C14.6726 47.9628 16.7182 48.4898 17.4346 48.4636C18.5314 48.3742 20.4003 45.34 16.4983 42.0858C13.4953 39.5814 11.2731 38.1269 10.5874 38.4546C9.69354 38.8818 9.76969 43.328 12.2211 45.6454Z" fill="#4CAF50"/>
<path d="M12.2091 45.6708C14.2086 47.4814 15.5167 47.9762 16.1443 48.1506C15.261 47.4923 13.3943 45.6053 11.9237 42.2927C11.284 40.8517 11.261 38.1523 10.5754 38.48C9.6815 38.9073 9.71019 43.408 12.2091 45.6708Z" fill="#4CAF50" style="mix-blend-mode:multiply"/>
<path d="M33.8136 74.8277C38.5644 76.3998 38.9436 71.6736 39.0309 68.9144C35.0326 64.8198 35.7242 64.2528 31.3531 61.2005C27.2208 58.3149 27.1885 65.031 27.2285 65.9968C27.2944 67.5893 29.0627 73.2555 33.8136 74.8277Z" fill="#4CAF50"/>
<g opacity="0.8">
<path d="M33.5744 74.7569C38.3252 76.329 38.9413 72.4361 39.0627 69.0343C34.5345 73.6453 36.3242 65.4929 31.8136 61.5913C27.9864 58.2808 27.4759 63.3418 27.2904 64.2958C26.8082 66.7751 28.8236 73.1847 33.5744 74.7569Z" fill="#4CAF50" style="mix-blend-mode:multiply"/>
</g>
<path d="M74.3999 54.5479C73.374 51.2854 73.7587 49.1471 74.0793 48.4858C74.6136 47.4938 78.0658 47.0003 79.3155 52.0128C80.2773 55.8706 80.6373 58.5597 80.0635 59.0669C79.3155 59.7283 75.4257 57.8104 74.3999 54.5479Z" fill="#4CAF50"/>
<path d="M74.3987 54.5484C73.3729 51.2859 73.7332 50.708 73.7332 50.708C73.7332 50.708 74.9487 53.4635 77.2597 56.219C78.2649 57.4177 80.6361 58.5602 80.0624 59.0675C79.3144 59.7288 75.4246 57.8109 74.3987 54.5484Z" fill="#4CAF50" style="mix-blend-mode:multiply"/>
</g>
</g>
<defs>
<filter id="filter0_d_1646_13557" x="-4.35642" y="0" width="96.7128" height="71.4456" filterUnits="userSpaceOnUse" color-interpolation-filters="sRGB">
<feFlood flood-opacity="0" result="BackgroundImageFix"/>
<feColorMatrix in="SourceAlpha" type="matrix" values="0 0 0 0 0 0 0 0 0 0 0 0 0 0 0 0 0 0 127 0" result="hardAlpha"/>
<feOffset dy="6.09898"/>
<feGaussianBlur stdDeviation="2.17821"/>
<feComposite in2="hardAlpha" operator="out"/>
<feColorMatrix type="matrix" values="0 0 0 0 0 0 0 0 0 0 0 0 0 0 0 0 0 0 0.3 0"/>
<feBlend mode="normal" in2="BackgroundImageFix" result="effect1_dropShadow_1646_13557"/>
<feBlend mode="normal" in="SourceGraphic" in2="effect1_dropShadow_1646_13557" result="shape"/>
</filter>
</defs>
</svg>
